<svg width="1440" height="14" viewBox="0 0 1440 14" fill="none" xmlns="http://www.w3.org/2000/svg">
<path d="M-10 2C-9.04144 2.70048 1.06116 2.91845 2.77778 3.01494C27.1885 4.38713 51.8186 5.23857 76.6667 5.99211C134.073 7.73303 191.126 9.81443 248.889 10.7556C313.413 11.8069 378.79 12.1634 443.444 11.9329C507.375 11.705 570.907 9.88147 634.778 9.3076C679.233 8.90818 723.568 8.69367 768.056 8.94222C814.672 9.20266 861.39 8.70847 908 8.45505C997.104 7.97057 1086.43 8.24373 1175.56 8.33325C1227.83 8.38576 1279.93 9.79477 1332.22 9.79477C1363.78 9.79477 1395.82 10.3421 1427.22 11.0668C1444.2 11.4586 1460.96 11.4999 1478 11.4999" stroke="#00999E" stroke-width="3" stroke-linecap="round"/>
</svg>
