<svg width="257" height="21" viewBox="0 0 257 21" fill="none" xmlns="http://www.w3.org/2000/svg">
<path fill-rule="evenodd" clip-rule="evenodd" d="M0.00169872 1.42931C0.040755 0.601807 0.743243 -0.0373577 1.57075 0.00169872C43.1401 1.96368 84.4566 2.05239 125.893 2.14135L128.183 2.14628C170.376 2.23752 212.699 2.36484 255.475 4.51192C256.273 4.55195 256.899 5.20992 256.9 6.00855C256.901 6.80718 256.276 7.46638 255.478 7.50799C250.715 7.75651 245.946 8.08909 241.158 8.42303C233.339 8.9683 225.468 9.51719 217.486 9.70959C185.171 10.4953 152.92 11.0183 120.676 11.0715C123.661 11.2865 126.646 11.5015 129.631 11.7165L130.35 11.7682C156.708 13.6668 183.067 15.5654 209.428 17.4639C210.254 17.5234 210.876 18.2415 210.816 19.0678C210.757 19.8941 210.039 20.5157 209.212 20.4562C182.692 18.5462 156.175 16.6362 129.657 14.7262C111.561 13.4227 93.4644 12.1193 75.3672 10.8158C52.1085 10.5041 28.8391 9.89759 5.53707 8.91871C4.76157 8.88613 4.13901 8.26731 4.10176 7.49202C4.06451 6.71673 4.62487 6.04107 5.39368 5.93429C20.3359 3.85899 35.4836 4.93576 50.3178 6.0039C58.7105 6.60836 67.103 7.21281 75.4953 7.81726C122.77 8.44938 170.013 7.86298 217.414 6.71047C220.515 6.63572 223.584 6.50776 226.636 6.34729C193.664 5.30973 160.905 5.21705 128.177 5.14628L125.858 5.14129C84.4418 5.05238 43.067 4.96356 1.42931 2.99836C0.601807 2.95931 -0.0373577 2.25682 0.00169872 1.42931Z" fill="#5CD93D"/>
</svg>
