<svg width="20" height="23" viewBox="0 0 20 23" fill="none" xmlns="http://www.w3.org/2000/svg">
<g clip-path="url(#clip0_583_5886)">
<path d="M9.80992 12.9499C11.5441 12.9499 12.9499 11.5441 12.9499 9.80992C12.9499 8.07575 11.5441 6.66992 9.80992 6.66992C8.07575 6.66992 6.66992 8.07575 6.66992 9.80992C6.66992 11.5441 8.07575 12.9499 9.80992 12.9499Z" fill="white"/>
<path d="M10.8096 11.0601H8.80957V22.6801H10.8096V11.0601Z" fill="white"/>
<path d="M16.4202 9.80995C16.4202 6.16995 13.4602 3.19995 9.8102 3.19995C6.1602 3.19995 3.2002 6.15995 3.2002 9.80995C3.2002 12.39 4.6902 14.63 6.8602 15.71V14.57C5.2702 13.58 4.2002 11.82 4.2002 9.80995C4.2002 6.71995 6.7202 4.19995 9.8102 4.19995C12.9002 4.19995 15.4202 6.71995 15.4202 9.80995C15.4202 11.82 14.3602 13.58 12.7602 14.57V15.71C14.9202 14.62 16.4202 12.39 16.4202 9.79995V9.80995Z" fill="white"/>
<path d="M19.62 9.81C19.62 4.4 15.22 0 9.81 0C4.4 0 0 4.4 0 9.81C0 14.19 2.89 17.91 6.86 19.16V18.1C3.45 16.88 1 13.63 1 9.81C1 4.95 4.95 1 9.81 1C14.67 1 18.62 4.95 18.62 9.81C18.62 13.63 16.17 16.88 12.76 18.1V19.16C16.73 17.9 19.62 14.19 19.62 9.81Z" fill="white"/>
</g>
<defs>
<clipPath id="clip0_583_5886">
<rect width="19.62" height="22.68" fill="white"/>
</clipPath>
</defs>
</svg>
