<svg width="37" height="31" viewBox="0 0 37 31" fill="none" xmlns="http://www.w3.org/2000/svg">
<path d="M36.875 30.0625H0.157609C0.155 29.3788 0.153043 28.6947 0.148804 28.011C0.148478 27.9477 0.133152 27.8841 0.125 27.8208C0.125 21.7219 0.125 15.6231 0.125 9.52426C0.619674 9.2635 1.11337 9.00009 1.60967 8.74196C3.85022 7.57593 6.09141 6.41122 8.33228 5.24552C11.0789 3.81674 13.8252 2.38731 16.5712 0.957215C17.1392 0.661175 17.7053 0.360848 18.2721 0.0625C18.2939 0.0625 18.3154 0.0625 18.3373 0.0625C18.5558 0.179202 18.7723 0.300849 18.9934 0.411947C21.4361 1.63831 23.8798 2.86302 26.3228 4.08839C29.7712 5.81782 33.2192 7.5489 36.6699 9.27405C36.8166 9.34723 36.8685 9.42668 36.8682 9.59514C36.8633 16.3411 36.8639 23.0871 36.8642 29.8327C36.8642 29.9092 36.8711 29.9857 36.875 30.0622V30.0625ZM4.84478 14.7551C4.84478 16.0899 4.84446 17.4247 4.84543 18.7595C4.84543 18.8802 4.84837 19.0015 4.86304 19.1209C4.94848 19.8155 5.345 20.3057 5.89185 20.6884C6.65652 21.2235 7.52065 21.5011 8.42685 21.6563C9.59033 21.8558 10.7597 21.8663 11.9287 21.7186C12.8228 21.6059 13.6834 21.3712 14.4702 20.907C15.3725 20.3746 15.8479 19.6117 15.8395 18.5225C15.8189 15.875 15.8342 13.2271 15.8303 10.5792C15.83 10.3379 15.9242 10.1668 16.1225 10.0501C16.2203 9.99239 16.3243 9.94327 16.4307 9.90338C16.8712 9.73888 16.8793 9.72042 16.8862 9.25855C16.8885 9.0957 16.8213 9.02581 16.6765 9.00702C16.623 9.00009 16.5686 8.99581 16.5145 8.99581C15.2822 8.99515 14.0499 8.99482 12.8176 8.99581C12.4442 8.99581 12.4077 9.04592 12.3927 9.41646C12.3842 9.62712 12.469 9.74811 12.6497 9.82195C12.7902 9.87932 12.9334 9.93173 13.07 9.99734C13.3286 10.1213 13.4551 10.3174 13.4541 10.623C13.4466 12.7105 13.4505 14.7979 13.4502 16.8854C13.4502 17.5335 13.4587 18.182 13.4434 18.8298C13.4251 19.6012 13.0155 20.1817 12.2985 20.424C11.4582 20.7082 10.6005 20.7181 9.7537 20.455C9.06435 20.2407 8.69913 19.7189 8.6988 19.0035C8.69717 16.1855 8.6988 13.3675 8.69685 10.5495C8.69685 10.3636 8.76076 10.2119 8.90783 10.1101C9.02717 10.0273 9.15891 9.95712 9.29457 9.90569C9.73641 9.73789 9.74913 9.7191 9.75076 9.24471C9.75109 9.09899 9.69304 9.02976 9.56 9.01163C9.49576 9.00273 9.43054 8.99647 9.36598 8.99647C7.65598 8.99581 5.94598 8.99548 4.23565 8.99713C4.14402 8.99713 4.05043 9.0057 3.96207 9.02779C3.90859 9.04097 3.84435 9.07559 3.81696 9.12075C3.69533 9.32152 3.81598 9.71514 4.02696 9.81437C4.1838 9.88822 4.35076 9.94129 4.505 10.0198C4.73717 10.1378 4.85033 10.3244 4.8487 10.6019C4.84087 11.9862 4.84511 13.3705 4.84511 14.7548L4.84478 14.7551ZM20.3975 19.8857C20.3975 20.3746 20.4001 20.8635 20.3959 21.3524C20.3942 21.5205 20.4686 21.6178 20.6293 21.6296C21.094 21.6633 21.5567 21.6923 22.0208 21.5831C22.2373 21.5324 22.4734 21.5202 22.6945 21.5465C23.1513 21.6013 23.6026 21.7048 24.0588 21.7678C25.1978 21.9253 26.3323 21.899 27.453 21.6237C28.3863 21.3946 29.2579 21.024 29.9884 20.3766C31.0674 19.4205 31.2432 17.9855 30.4051 16.8106C30.1576 16.4637 29.8462 16.1502 29.5185 15.8776C28.6129 15.1237 27.5708 14.5876 26.538 14.0377C25.8141 13.6524 25.0961 13.2544 24.3891 12.8377C23.9564 12.5826 23.5684 12.2608 23.2889 11.8273C22.9107 11.2415 23.0052 10.7038 23.5635 10.2927C23.6809 10.2063 23.808 10.1246 23.9427 10.0722C24.6679 9.78965 25.4059 9.76097 26.1373 10.0333C26.8589 10.3019 27.3027 10.8657 27.6216 11.5474C27.7074 11.7307 27.7879 11.9183 27.8952 12.0887C27.9445 12.1669 28.0491 12.2523 28.1329 12.2569C28.506 12.278 28.8807 12.2819 29.254 12.2694C29.4591 12.2625 29.5038 12.1916 29.5041 11.9839C29.5048 11.1489 29.5048 10.3138 29.5041 9.47877C29.5041 9.26976 29.452 9.17778 29.2491 9.17284C28.8164 9.16295 28.3778 9.14877 27.952 9.20943C27.6611 9.25097 27.3875 9.27668 27.1038 9.20317C25.9446 8.90218 24.7746 8.80823 23.5899 9.02581C22.6729 9.19427 21.828 9.52987 21.1077 10.1434C20.2022 10.9145 19.9537 12.1023 20.4957 13.0939C20.7767 13.6082 21.1808 14.0229 21.6663 14.3331C22.3074 14.7426 22.9658 15.127 23.6339 15.4896C24.6513 16.0421 25.6951 16.5478 26.6466 17.2151C26.9652 17.4382 27.276 17.6911 27.5323 17.9832C28.1046 18.6353 28.1036 19.4917 27.5724 20.0766C27.3526 20.3185 27.093 20.5038 26.794 20.633C26.1839 20.8964 25.5428 20.9288 24.8929 20.8928C23.5892 20.821 22.6482 20.1023 22.2275 18.8601C22.1642 18.6735 22.1013 18.4866 22.038 18.3C21.9849 18.1434 21.8805 18.0521 21.7129 18.0511C21.3878 18.0488 21.0617 18.0349 20.7376 18.0531C20.4745 18.0679 20.3982 18.1721 20.3972 18.4352C20.3959 18.9184 20.3968 19.4021 20.3972 19.8854L20.3975 19.8857ZM20.6095 24.5937C20.6646 24.6438 20.688 24.6843 20.7164 24.6876C20.8951 24.7097 20.9215 24.8241 20.9209 24.9807C20.9166 25.9087 20.9173 26.837 20.9205 27.7651C20.9209 27.9025 20.8932 28.0011 20.7405 28.0275C20.7073 28.0331 20.6802 28.0739 20.6502 28.0987C20.6835 28.1158 20.7167 28.1478 20.7503 28.1481C21.0813 28.1518 21.4126 28.1518 21.7436 28.1481C21.7795 28.1478 21.815 28.1194 21.8509 28.104C21.8218 28.0782 21.7961 28.0357 21.7638 28.0301C21.5991 28.0014 21.5642 27.8979 21.5652 27.7453C21.5698 26.9491 21.5672 26.1527 21.5678 25.3562C21.5678 25.3107 21.574 25.2652 21.5792 25.1917C22.4258 26.1916 23.2521 27.168 24.0862 28.1534C24.9301 27.1657 25.7577 26.1975 26.598 25.2141C26.6108 25.2583 26.6189 25.2731 26.6189 25.2879C26.6199 26.1335 26.6189 26.9795 26.6215 27.8251C26.6218 27.9487 26.5579 27.9985 26.4497 28.0258C26.4128 28.035 26.3845 28.0796 26.3525 28.1079C26.389 28.1218 26.4255 28.1478 26.4621 28.1481C26.8093 28.1511 27.1566 28.1511 27.5042 28.1481C27.5417 28.1481 27.5792 28.1234 27.6167 28.1099C27.5851 28.0809 27.5577 28.035 27.5215 28.0265C27.3986 27.9971 27.3334 27.9335 27.3334 27.7993C27.335 26.8384 27.335 25.8771 27.3334 24.9161C27.3334 24.799 27.3852 24.7331 27.4928 24.6998C27.5395 24.6853 27.5825 24.6579 27.6268 24.6362C27.622 24.6243 27.6167 24.6121 27.6118 24.6003H26.032C26.0284 24.6148 26.0248 24.6293 26.0212 24.6434C26.0545 24.6616 26.0861 24.687 26.1216 24.6968C26.2511 24.7331 26.2592 24.8013 26.1803 24.8976C26.163 24.9187 26.1454 24.9398 26.1278 24.9606C25.5441 25.6473 24.9604 26.334 24.3764 27.0203C24.2998 27.1103 24.2209 27.1987 24.1345 27.2979C23.4132 26.4523 22.7033 25.6193 21.9846 24.7766C22.0814 24.7186 22.1518 24.6767 22.2226 24.6345C22.2167 24.6204 22.2109 24.6065 22.205 24.5923H20.6101L20.6095 24.5937ZM13.6465 24.5894C13.641 24.6016 13.6358 24.6134 13.6302 24.6256C13.657 24.6474 13.6814 24.6837 13.7111 24.6886C13.8761 24.7153 13.9097 24.8182 13.9087 24.9718C13.9035 25.8892 13.9035 26.8067 13.9087 27.7242C13.9097 27.8851 13.8908 28.0077 13.7036 28.0337C13.6798 28.037 13.6622 28.0835 13.6416 28.1099C13.668 28.1234 13.6932 28.1438 13.7212 28.1485C13.7636 28.155 13.8079 28.1508 13.8513 28.1508C14.9805 28.1508 16.1101 28.156 17.2393 28.1478C17.5912 28.1452 17.9443 28.1218 18.2939 28.0809C18.6813 28.0354 19.0501 27.9216 19.3299 27.6203C19.5767 27.3546 19.5996 26.9699 19.353 26.7111C19.2265 26.5783 19.0468 26.4929 18.8825 26.4029C18.785 26.3495 18.6702 26.329 18.5623 26.2934C18.7172 26.2153 18.8688 26.153 19.0054 26.0663C19.204 25.94 19.3318 25.7617 19.3195 25.5088C19.3015 25.1445 19.0615 24.9573 18.7707 24.8175C18.4211 24.6494 18.0451 24.5907 17.6633 24.5884C16.3713 24.5808 15.079 24.5815 13.7871 24.5798C13.7404 24.5798 13.6938 24.5864 13.6475 24.59L13.6465 24.5894ZM7.53076 24.5884C7.52359 24.6032 7.51674 24.6181 7.50957 24.6332C7.53957 24.653 7.56728 24.6856 7.59957 24.6906C7.76359 24.7156 7.80467 24.8195 7.80435 24.9715C7.80141 25.8995 7.80174 26.8272 7.80402 27.7552C7.80435 27.8982 7.76978 28.0018 7.61065 28.0281C7.57772 28.0337 7.55033 28.0746 7.52033 28.0993C7.55391 28.1165 7.58587 28.1412 7.62141 28.1485C7.66315 28.157 7.70783 28.1508 7.7512 28.1508C9.27043 28.1508 10.7897 28.1508 12.3089 28.1508C12.4543 28.1508 12.6034 28.1333 12.7038 28.2856C12.7227 28.3139 12.7961 28.3057 12.8548 28.3159V27.6183C12.7935 27.6315 12.7224 27.6253 12.7009 27.6553C12.6011 27.7941 12.4599 27.7871 12.3187 27.7871C11.1086 27.7875 9.8988 27.7871 8.68869 27.7871H8.52728C8.51913 27.7512 8.51065 27.7308 8.51065 27.71C8.50967 26.7767 8.51033 25.8434 8.50837 24.9098C8.50837 24.7915 8.56446 24.7298 8.67174 24.6978C8.71576 24.685 8.75424 24.6537 8.79533 24.6306C8.78913 24.6164 8.78261 24.6019 8.77641 24.5877H7.53044L7.53076 24.5884ZM32.0652 21.8383C32.2361 21.7918 32.4161 21.7668 32.5765 21.6956C33.2323 21.4048 33.3986 20.6212 32.9157 20.1428C32.525 19.7561 31.8565 19.6836 31.3984 19.9846C31.0693 20.2005 30.8818 20.4985 30.9308 20.9093C30.993 21.4312 31.4776 21.8152 32.0652 21.8383ZM17.5335 19.7937C17.4213 19.8102 17.3049 19.8128 17.1976 19.8458C16.8109 19.9651 16.5158 20.1946 16.4284 20.6139C16.3465 21.0069 16.4926 21.325 16.8017 21.5683C17.2165 21.895 17.853 21.8943 18.2737 21.5683C18.8359 21.1328 18.8082 20.3838 18.2143 19.9932C18.0083 19.8577 17.781 19.7967 17.5335 19.7934V19.7937ZM29.422 23.3254C29.0717 23.3307 28.7848 23.4504 28.6266 23.7896C28.4548 24.1575 28.5604 24.5923 28.8718 24.8228C29.1921 25.0598 29.7611 25.0397 30.0425 24.7816C30.3057 24.5403 30.3888 24.1714 30.2564 23.8331C30.1276 23.5044 29.8266 23.3215 29.4223 23.3254H29.422Z" fill="white"/>
<path d="M14.6382 26.4517C15.7374 26.4701 16.8213 26.4836 17.9052 26.5097C18.1508 26.5156 18.3846 26.5947 18.5864 26.7484C18.8877 26.9781 18.8877 27.3599 18.559 27.5494C18.3767 27.6546 18.157 27.7057 17.9473 27.7469C17.7575 27.7842 17.5589 27.7838 17.3642 27.7845C16.4854 27.7885 15.6066 27.7871 14.7282 27.7871C14.7017 27.7871 14.675 27.7832 14.6385 27.7802V26.4517H14.6382Z" fill="white"/>
<path d="M14.6323 24.9497C14.6691 24.9441 14.7125 24.9316 14.7559 24.9319C15.7041 24.9388 16.6527 24.9362 17.6007 24.9626C17.8482 24.9695 18.0999 25.0489 18.3373 25.1313C18.5108 25.1913 18.6379 25.3334 18.635 25.5424C18.6317 25.7524 18.4993 25.8883 18.322 25.939C18.0591 26.0145 17.7852 26.0877 17.5146 26.0936C16.5826 26.1138 15.65 26.1042 14.7174 26.1055C14.6916 26.1055 14.6659 26.1002 14.6323 26.0966V24.9497Z" fill="white"/>
<path d="M29.4337 23.4369C29.8932 23.4395 30.1974 23.7352 30.1918 24.1733C30.1866 24.5851 29.8707 24.8759 29.4295 24.8755C28.9827 24.8749 28.6684 24.5762 28.6693 24.1529C28.67 23.7313 28.987 23.4342 29.4337 23.4369ZM29.6483 24.2327C29.8537 24.1196 29.9134 24.0256 29.8697 23.8691C29.8201 23.6907 29.6717 23.6699 29.5198 23.6676C29.3473 23.665 29.1751 23.667 29.0082 23.667V24.6375H29.1712V24.234C29.5185 24.1549 29.5707 24.3167 29.6939 24.6362H29.9049C29.8165 24.4971 29.736 24.3708 29.6486 24.233L29.6483 24.2327Z" fill="white"/>
<path d="M29.165 24.0906V23.8025C29.3157 23.8025 29.4614 23.7909 29.6033 23.8087C29.6528 23.815 29.7343 23.8997 29.7285 23.937C29.7197 23.9933 29.6528 24.0761 29.601 24.0837C29.464 24.1041 29.3222 24.0906 29.1647 24.0906H29.165Z" fill="white"/>
</svg>
